# xmcd
#
# Track frame offsets:
#	150
#	19814
#	42625
#	61751
#	84603
#	101886
#	122215
#	142007
#	161135
#	190107
#
# Disc length: 2908 seconds
#
# Revision: 0
# Processed by: cddbd v1.5.2PL0 Copyright (c) Steve Scherf et al.
# Submitted via: audiograbber 1.83.01
#
DISCID=8f0b5a0a
DTITLE=Dire Straits - On Every Demo
DYEAR=1991
DGENRE=Rock
TTITLE0=Calling Elvis
TTITLE1=On every Street
TTITLE2=The Bug
TTITLE3=Heavy Fuel
TTITLE4=Iron Hand
TTITLE5=Long Highway
TTITLE6=Millionaire Blues
TTITLE7=Kingdom Come
TTITLE8=Calling Elvis2
TTITLE9=I Tinky i love to much
EXTD=
EXTT0=
EXTT1=
EXTT2=
EXTT3=
EXTT4=
EXTT5=
EXTT6=
EXTT7=
EXTT8=
EXTT9=
PLAYORDER=
